<svg width="20" height="21" viewBox="0 0 20 21" fill="none" xmlns="http://www.w3.org/2000/svg">
<g clip-path="url(#clip0_680_8547)">
<mask id="mask0_680_8547" style="mask-type:alpha" maskUnits="userSpaceOnUse" x="0" y="1" width="19" height="20">
<path fill-rule="evenodd" clip-rule="evenodd" d="M16.996 10.2449C16.999 10.3319 17 10.4179 17 10.5049C17 14.6469 13.642 18.0049 9.5 18.0049C5.358 18.0049 2 14.6469 2 10.5049C2 6.36288 5.358 3.00488 9.5 3.00488C11.024 3.00488 12.441 3.45888 13.624 4.23988L15.257 2.94688C13.66 1.72888 11.664 1.00488 9.5 1.00488C4.253 1.00488 0 5.25788 0 10.5049C0 15.7519 4.253 20.0049 9.5 20.0049C14.747 20.0049 19 15.7519 19 10.5049C19 9.91788 18.947 9.34288 18.845 8.78488L16.996 10.2449Z" fill="#C4C4C4"/>
</mask>
<g mask="url(#mask0_680_8547)">
<path d="M16.994 10.2079C16.998 10.3069 17 10.4059 17 10.5049C17 14.6469 13.642 18.0049 9.5 18.0049C5.358 18.0049 2 14.6469 2 10.5049C2 6.36288 5.358 3.00488 9.5 3.00488C11.024 3.00488 12.441 3.45888 13.624 4.23988L15.257 2.94688C13.66 1.72888 11.664 1.00488 9.5 1.00488C4.253 1.00488 0 5.25788 0 10.5049C0 15.7519 4.253 20.0049 9.5 20.0049C14.747 20.0049 19 15.7519 19 10.5049C19 9.89988 18.943 9.30789 18.835 8.73389L16.994 10.2079Z" fill="#24A236"/>
<path d="M8.40385 9.04402C13.0452 9.04402 16.8077 5.28149 16.8077 0.640167C16.8077 -4.00115 13.0452 -7.76367 8.40385 -7.76367C3.76254 -7.76367 0 -4.00115 0 0.640167C0 5.28149 3.76254 9.04402 8.40385 9.04402Z" fill="#008ACB"/>
<g filter="url(#filter0_f_680_8547)">
<path d="M7.30769 28.0441C11.3436 28.0441 14.6154 24.7723 14.6154 20.7364C14.6154 16.7005 11.3436 13.4287 7.30769 13.4287C3.27177 13.4287 0 16.7005 0 20.7364C0 24.7723 3.27177 28.0441 7.30769 28.0441Z" fill="#77F628"/>
</g>
<g filter="url(#filter1_f_680_8547)">
<path d="M0.731522 14.1593C4.76745 14.1593 8.03922 10.8875 8.03922 6.85162C8.03922 2.8157 4.76745 -0.456055 0.731522 -0.456055C-3.3044 -0.456055 -6.57617 2.8157 -6.57617 6.85162C-6.57617 10.8875 -3.3044 14.1593 0.731522 14.1593Z" fill="#19E7E8"/>
</g>
<g filter="url(#filter2_f_680_8547)">
<path d="M0.000442505 20.0058C3.22918 20.0058 5.84659 17.3884 5.84659 14.1596C5.84659 10.9309 3.22918 8.31348 0.000442505 8.31348C-3.2283 8.31348 -5.8457 10.9309 -5.8457 14.1596C-5.8457 17.3884 -3.2283 20.0058 0.000442505 20.0058Z" fill="#DEFA1B"/>
</g>
</g>
<path fill-rule="evenodd" clip-rule="evenodd" d="M18.049 6.35587L9.5 13.0049V10.5049L16.999 4.67188C17.405 5.19288 17.757 5.75687 18.049 6.35587Z" fill="#24A236"/>
<path fill-rule="evenodd" clip-rule="evenodd" d="M6 10.8094L9.5 13.0044V10.5044L6 8.31641V10.8094Z" fill="#24A236"/>
</g>
<defs>
<filter id="filter0_f_680_8547" x="-8" y="5.42871" width="30.6152" height="30.6152" filterUnits="userSpaceOnUse" color-interpolation-filters="sRGB">
<feFlood flood-opacity="0" result="BackgroundImageFix"/>
<feBlend mode="normal" in="SourceGraphic" in2="BackgroundImageFix" result="shape"/>
<feGaussianBlur stdDeviation="4" result="effect1_foregroundBlur_680_8547"/>
</filter>
<filter id="filter1_f_680_8547" x="-14.5762" y="-8.45605" width="30.6152" height="30.6152" filterUnits="userSpaceOnUse" color-interpolation-filters="sRGB">
<feFlood flood-opacity="0" result="BackgroundImageFix"/>
<feBlend mode="normal" in="SourceGraphic" in2="BackgroundImageFix" result="shape"/>
<feGaussianBlur stdDeviation="4" result="effect1_foregroundBlur_680_8547"/>
</filter>
<filter id="filter2_f_680_8547" x="-11.8457" y="2.31348" width="23.6914" height="23.6924" filterUnits="userSpaceOnUse" color-interpolation-filters="sRGB">
<feFlood flood-opacity="0" result="BackgroundImageFix"/>
<feBlend mode="normal" in="SourceGraphic" in2="BackgroundImageFix" result="shape"/>
<feGaussianBlur stdDeviation="3" result="effect1_foregroundBlur_680_8547"/>
</filter>
<clipPath id="clip0_680_8547">
<rect width="20" height="20" fill="white" transform="translate(0 0.00488281)"/>
</clipPath>
</defs>
</svg>
